<svg width="1799" height="1024" viewBox="0 0 1799 1024" fill="none" xmlns="http://www.w3.org/2000/svg">
<rect width="1440" height="1024" transform="translate(179)" fill="F4F4F4"/>
<circle cx="849" cy="462" r="50" fill="#F9F9F9"/>
<circle cx="849" cy="562" r="50" fill="#F9F9F9"/>
<circle cx="949" cy="562" r="50" fill="#F9F9F9"/>
<circle cx="949" cy="462" r="50" fill="#F9F9F9"/>
<circle cx="649" cy="462" r="50" fill="#F9F9F9"/>
<circle cx="649" cy="562" r="50" fill="#F9F9F9"/>
<circle cx="749" cy="562" r="50" fill="#F9F9F9"/>
<circle cx="749" cy="462" r="50" fill="#F9F9F9"/>
<circle cx="1049" cy="462" r="50" fill="#F9F9F9"/>
<circle cx="1049" cy="562" r="50" fill="#F9F9F9"/>
<circle cx="1149" cy="562" r="50" fill="#F9F9F9"/>
<circle cx="1149" cy="462" r="50" fill="#F9F9F9"/>
<circle cx="849" cy="262" r="50" fill="#F9F9F9"/>
<circle cx="849" cy="362" r="50" fill="#F9F9F9"/>
<circle cx="949" cy="362" r="50" fill="#F9F9F9"/>
<circle cx="949" cy="262" r="50" fill="#F9F9F9"/>
<circle cx="649" cy="262" r="50" fill="#F9F9F9"/>
<circle cx="649" cy="362" r="50" fill="#F9F9F9"/>
<circle cx="749" cy="362" r="50" fill="#F9F9F9"/>
<circle cx="749" cy="262" r="50" fill="#F9F9F9"/>
<circle cx="1049" cy="262" r="50" fill="#F9F9F9"/>
<circle cx="1049" cy="362" r="50" fill="#F9F9F9"/>
<circle cx="1149" cy="362" r="50" fill="#F9F9F9"/>
<circle cx="1149" cy="262" r="50" fill="#F9F9F9"/>
<circle cx="849" cy="62" r="50" fill="#F9F9F9"/>
<circle cx="849" cy="162" r="50" fill="#F9F9F9"/>
<circle cx="949" cy="162" r="50" fill="#F9F9F9"/>
<circle cx="949" cy="62" r="50" fill="#F9F9F9"/>
<circle cx="649" cy="62" r="50" fill="#F9F9F9"/>
<circle cx="649" cy="162" r="50" fill="#F9F9F9"/>
<circle cx="749" cy="162" r="50" fill="#F9F9F9"/>
<circle cx="749" cy="62" r="50" fill="#F9F9F9"/>
<circle cx="1049" cy="62" r="50" fill="#F9F9F9"/>
<circle cx="1049" cy="162" r="50" fill="#F9F9F9"/>
<circle cx="1149" cy="162" r="50" fill="#F9F9F9"/>
<circle cx="1149" cy="62" r="50" fill="#F9F9F9"/>
<circle cx="849" cy="662" r="50" fill="#F9F9F9"/>
<circle cx="849" cy="762" r="50" fill="#F9F9F9"/>
<circle cx="949" cy="762" r="50" fill="#F9F9F9"/>
<circle cx="949" cy="662" r="50" fill="#F9F9F9"/>
<circle cx="649" cy="662" r="50" fill="#F9F9F9"/>
<circle cx="649" cy="762" r="50" fill="#F9F9F9"/>
<circle cx="749" cy="762" r="50" fill="#F9F9F9"/>
<circle cx="749" cy="662" r="50" fill="#F9F9F9"/>
<circle cx="1049" cy="662" r="50" fill="#F9F9F9"/>
<circle cx="1049" cy="762" r="50" fill="#F9F9F9"/>
<circle cx="1149" cy="762" r="50" fill="#F9F9F9"/>
<circle cx="1149" cy="662" r="50" fill="#F9F9F9"/>
<circle cx="849" cy="862" r="50" fill="#F9F9F9"/>
<circle cx="849" cy="962" r="50" fill="#F9F9F9"/>
<circle cx="949" cy="962" r="50" fill="#F9F9F9"/>
<circle cx="949" cy="862" r="50" fill="#F9F9F9"/>
<circle cx="649" cy="862" r="50" fill="#F9F9F9"/>
<circle cx="649" cy="962" r="50" fill="#F9F9F9"/>
<circle cx="749" cy="962" r="50" fill="#F9F9F9"/>
<circle cx="749" cy="862" r="50" fill="#F9F9F9"/>
<circle cx="1049" cy="862" r="50" fill="#F9F9F9"/>
<circle cx="1049" cy="962" r="50" fill="#F9F9F9"/>
<circle cx="1149" cy="962" r="50" fill="#F9F9F9"/>
<circle cx="1149" cy="862" r="50" fill="#F9F9F9"/>
<circle cx="1449" cy="462" r="50" fill="#F9F9F9"/>
<circle cx="1449" cy="562" r="50" fill="#F9F9F9"/>
<circle cx="1549" cy="562" r="50" fill="#F9F9F9"/>
<circle cx="1549" cy="462" r="50" fill="#F9F9F9"/>
<circle cx="1249" cy="462" r="50" fill="#F9F9F9"/>
<circle cx="1249" cy="562" r="50" fill="#F9F9F9"/>
<circle cx="1349" cy="562" r="50" fill="#F9F9F9"/>
<circle cx="1349" cy="462" r="50" fill="#F9F9F9"/>
<circle cx="1649" cy="462" r="50" fill="#F9F9F9"/>
<circle cx="1649" cy="562" r="50" fill="#F9F9F9"/>
<circle cx="1749" cy="562" r="50" fill="#F9F9F9"/>
<circle cx="1749" cy="462" r="50" fill="#F9F9F9"/>
<circle cx="1449" cy="262" r="50" fill="#F9F9F9"/>
<circle cx="1449" cy="362" r="50" fill="#F9F9F9"/>
<circle cx="1549" cy="362" r="50" fill="#F9F9F9"/>
<circle cx="1549" cy="262" r="50" fill="#F9F9F9"/>
<circle cx="1249" cy="262" r="50" fill="#F9F9F9"/>
<circle cx="1249" cy="362" r="50" fill="#F9F9F9"/>
<circle cx="1349" cy="362" r="50" fill="#F9F9F9"/>
<circle cx="1349" cy="262" r="50" fill="#F9F9F9"/>
<circle cx="1649" cy="262" r="50" fill="#F9F9F9"/>
<circle cx="1649" cy="362" r="50" fill="#F9F9F9"/>
<circle cx="1749" cy="362" r="50" fill="#F9F9F9"/>
<circle cx="1749" cy="262" r="50" fill="#F9F9F9"/>
<circle cx="1449" cy="62" r="50" fill="#F9F9F9"/>
<circle cx="1449" cy="162" r="50" fill="#F9F9F9"/>
<circle cx="1549" cy="162" r="50" fill="#F9F9F9"/>
<circle cx="1549" cy="62" r="50" fill="#F9F9F9"/>
<circle cx="1249" cy="62" r="50" fill="#F9F9F9"/>
<circle cx="1249" cy="162" r="50" fill="#F9F9F9"/>
<circle cx="1349" cy="162" r="50" fill="#F9F9F9"/>
<circle cx="1349" cy="62" r="50" fill="#F9F9F9"/>
<circle cx="1649" cy="62" r="50" fill="#F9F9F9"/>
<circle cx="1649" cy="162" r="50" fill="#F9F9F9"/>
<circle cx="1749" cy="162" r="50" fill="#F9F9F9"/>
<circle cx="1749" cy="62" r="50" fill="#F9F9F9"/>
<circle cx="1449" cy="662" r="50" fill="#F9F9F9"/>
<circle cx="1449" cy="762" r="50" fill="#F9F9F9"/>
<circle cx="1549" cy="762" r="50" fill="#F9F9F9"/>
<circle cx="1549" cy="662" r="50" fill="#F9F9F9"/>
<circle cx="1249" cy="662" r="50" fill="#F9F9F9"/>
<circle cx="1249" cy="762" r="50" fill="#F9F9F9"/>
<circle cx="1349" cy="762" r="50" fill="#F9F9F9"/>
<circle cx="1349" cy="662" r="50" fill="#F9F9F9"/>
<circle cx="1649" cy="662" r="50" fill="#F9F9F9"/>
<circle cx="1649" cy="762" r="50" fill="#F9F9F9"/>
<circle cx="1749" cy="762" r="50" fill="#F9F9F9"/>
<circle cx="1749" cy="662" r="50" fill="#F9F9F9"/>
<circle cx="1449" cy="862" r="50" fill="#F9F9F9"/>
<circle cx="1449" cy="962" r="50" fill="#F9F9F9"/>
<circle cx="1549" cy="962" r="50" fill="#F9F9F9"/>
<circle cx="1549" cy="862" r="50" fill="#F9F9F9"/>
<circle cx="1249" cy="862" r="50" fill="#F9F9F9"/>
<circle cx="1249" cy="962" r="50" fill="#F9F9F9"/>
<circle cx="1349" cy="962" r="50" fill="#F9F9F9"/>
<circle cx="1349" cy="862" r="50" fill="#F9F9F9"/>
<circle cx="1649" cy="862" r="50" fill="#F9F9F9"/>
<circle cx="1649" cy="962" r="50" fill="#F9F9F9"/>
<circle cx="1749" cy="962" r="50" fill="#F9F9F9"/>
<circle cx="1749" cy="862" r="50" fill="#F9F9F9"/>
<circle cx="250" cy="462" r="50" fill="#F9F9F9"/>
<circle cx="250" cy="562" r="50" fill="#F9F9F9"/>
<circle cx="350" cy="562" r="50" fill="#F9F9F9"/>
<circle cx="350" cy="462" r="50" fill="#F9F9F9"/>
<circle cx="50" cy="462" r="50" fill="#F9F9F9"/>
<circle cx="50" cy="562" r="50" fill="#F9F9F9"/>
<circle cx="150" cy="562" r="50" fill="#F9F9F9"/>
<circle cx="150" cy="462" r="50" fill="#F9F9F9"/>
<circle cx="450" cy="462" r="50" fill="#F9F9F9"/>
<circle cx="450" cy="562" r="50" fill="#F9F9F9"/>
<circle cx="550" cy="562" r="50" fill="#F9F9F9"/>
<circle cx="550" cy="462" r="50" fill="#F9F9F9"/>
<circle cx="250" cy="262" r="50" fill="#F9F9F9"/>
<circle cx="250" cy="362" r="50" fill="#F9F9F9"/>
<circle cx="350" cy="362" r="50" fill="#F9F9F9"/>
<circle cx="350" cy="262" r="50" fill="#F9F9F9"/>
<circle cx="50" cy="262" r="50" fill="#F9F9F9"/>
<circle cx="50" cy="362" r="50" fill="#F9F9F9"/>
<circle cx="150" cy="362" r="50" fill="#F9F9F9"/>
<circle cx="150" cy="262" r="50" fill="#F9F9F9"/>
<circle cx="450" cy="262" r="50" fill="#F9F9F9"/>
<circle cx="450" cy="362" r="50" fill="#F9F9F9"/>
<circle cx="550" cy="362" r="50" fill="#F9F9F9"/>
<circle cx="550" cy="262" r="50" fill="#F9F9F9"/>
<circle cx="250" cy="62" r="50" fill="#F9F9F9"/>
<circle cx="250" cy="162" r="50" fill="#F9F9F9"/>
<circle cx="350" cy="162" r="50" fill="#F9F9F9"/>
<circle cx="350" cy="62" r="50" fill="#F9F9F9"/>
<circle cx="50" cy="62" r="50" fill="#F9F9F9"/>
<circle cx="50" cy="162" r="50" fill="#F9F9F9"/>
<circle cx="150" cy="162" r="50" fill="#F9F9F9"/>
<circle cx="150" cy="62" r="50" fill="#F9F9F9"/>
<circle cx="450" cy="62" r="50" fill="#F9F9F9"/>
<circle cx="450" cy="162" r="50" fill="#F9F9F9"/>
<circle cx="550" cy="162" r="50" fill="#F9F9F9"/>
<circle cx="550" cy="62" r="50" fill="#F9F9F9"/>
<circle cx="250" cy="662" r="50" fill="#F9F9F9"/>
<circle cx="250" cy="762" r="50" fill="#F9F9F9"/>
<circle cx="350" cy="762" r="50" fill="#F9F9F9"/>
<circle cx="350" cy="662" r="50" fill="#F9F9F9"/>
<circle cx="50" cy="662" r="50" fill="#F9F9F9"/>
<circle cx="50" cy="762" r="50" fill="#F9F9F9"/>
<circle cx="150" cy="762" r="50" fill="#F9F9F9"/>
<circle cx="150" cy="662" r="50" fill="#F9F9F9"/>
<circle cx="450" cy="662" r="50" fill="#F9F9F9"/>
<circle cx="450" cy="762" r="50" fill="#F9F9F9"/>
<circle cx="550" cy="762" r="50" fill="#F9F9F9"/>
<circle cx="550" cy="662" r="50" fill="#F9F9F9"/>
<circle cx="250" cy="862" r="50" fill="#F9F9F9"/>
<circle cx="250" cy="962" r="50" fill="#F9F9F9"/>
<circle cx="350" cy="962" r="50" fill="#F9F9F9"/>
<circle cx="350" cy="862" r="50" fill="#F9F9F9"/>
<circle cx="50" cy="862" r="50" fill="#F9F9F9"/>
<circle cx="50" cy="962" r="50" fill="#F9F9F9"/>
<circle cx="150" cy="962" r="50" fill="#F9F9F9"/>
<circle cx="150" cy="862" r="50" fill="#F9F9F9"/>
<circle cx="450" cy="862" r="50" fill="#F9F9F9"/>
<circle cx="450" cy="962" r="50" fill="#F9F9F9"/>
<circle cx="550" cy="962" r="50" fill="#F9F9F9"/>
<circle cx="550" cy="862" r="50" fill="#F9F9F9"/>
</svg>
